<svg width="85" height="89" viewBox="0 0 85 89" fill="none" xmlns="http://www.w3.org/2000/svg">
<rect width="85" height="89" fill="white"/>
<path d="M24.5556 13.7778H21.0453C16.1293 13.7778 13.6694 13.7778 11.7918 14.7345C10.1401 15.5761 8.79828 16.9179 7.95672 18.5696C7 20.4472 7 22.9071 7 27.8231V31.3333M24.5556 13.7778H59.6667M24.5556 13.7778V5M59.6667 13.7778H63.1786C68.0947 13.7778 70.5492 13.7778 72.4269 14.7345C74.0785 15.5761 75.4249 16.9179 76.2664 18.5696C77.2222 20.4454 77.2222 22.9022 77.2222 27.8087V31.3333M59.6667 13.7778V5M7 31.3333V69.9564C7 74.8724 7 77.3292 7.95672 79.2068C8.79828 80.8585 10.1401 82.2027 11.7918 83.0442C13.6676 84 16.1245 84 21.0309 84H63.1913C68.0977 84 70.5511 84 72.4269 83.0442C74.0785 82.2027 75.4249 80.8585 76.2664 79.2068C77.2222 77.331 77.2222 74.8777 77.2222 69.9713V31.3333M7 31.3333H77.2222M59.6667 66.4444H59.6754L59.6752 66.4532L59.6667 66.453V66.4444ZM42.1111 66.4444H42.1199L42.1197 66.4532L42.1111 66.453V66.4444ZM24.5556 66.4444H24.5643L24.5641 66.4532L24.5556 66.453V66.4444ZM59.6752 48.8889V48.8977L59.6667 48.8975V48.8889H59.6752ZM42.1111 48.8889H42.1199L42.1197 48.8977L42.1111 48.8975V48.8889ZM24.5556 48.8889H24.5643L24.5641 48.8977L24.5556 48.8975V48.8889Z" stroke="url(#paint0_linear_816_411)" stroke-width="6.15584" stroke-linecap="round" stroke-linejoin="round"/>
<defs>
<linearGradient id="paint0_linear_816_411" x1="36.4056" y1="-67.7029" x2="130.278" y2="44.748" gradientUnits="userSpaceOnUse">
<stop stop-color="#D90217"/>
<stop offset="1" stop-color="#FF4B5C"/>
</linearGradient>
</defs>
</svg>
