<svg width="27" height="27" viewBox="0 0 27 27" fill="none" xmlns="http://www.w3.org/2000/svg">
    <g clip-path="url(#clip0_816_691)">
        <path d="M13.2688 2.38942C16.814 2.38942 17.2339 2.40497 18.6281 2.46716C19.9239 2.52418 20.6236 2.74187 21.0901 2.92328C21.7069 3.1617 22.1526 3.45195 22.6139 3.91325C23.0804 4.37973 23.3655 4.8203 23.6039 5.43709C23.7853 5.90357 24.003 6.60847 24.06 7.89907C24.1222 9.29851 24.1378 9.71834 24.1378 13.2584C24.1378 16.8037 24.1222 17.2235 24.06 18.6178C24.003 19.9135 23.7853 20.6133 23.6039 21.0797C23.3655 21.6965 23.0752 22.1423 22.6139 22.6036C22.1475 23.07 21.7069 23.3551 21.0901 23.5935C20.6236 23.775 19.9187 23.9926 18.6281 24.0497C17.2287 24.1119 16.8088 24.1274 13.2688 24.1274C9.72352 24.1274 9.30369 24.1119 7.90943 24.0497C6.61366 23.9926 5.91393 23.775 5.44745 23.5935C4.83066 23.3551 4.38492 23.0649 3.92362 22.6036C3.45714 22.1371 3.17207 21.6965 2.93364 21.0797C2.75223 20.6133 2.53454 19.9083 2.47753 18.6178C2.41533 17.2183 2.39978 16.7985 2.39978 13.2584C2.39978 9.71316 2.41533 9.29333 2.47753 7.89907C2.53454 6.60329 2.75223 5.90357 2.93364 5.43709C3.17207 4.8203 3.46232 4.37455 3.92362 3.91325C4.3901 3.44677 4.83066 3.1617 5.44745 2.92328C5.91393 2.74187 6.61884 2.52418 7.90943 2.46716C9.30369 2.40497 9.72352 2.38942 13.2688 2.38942ZM13.2688 0C9.66651 0 9.21558 0.0155493 7.80059 0.0777467C6.39078 0.139944 5.42154 0.368001 4.58187 0.694537C3.70593 1.03662 2.96474 1.48755 2.22874 2.22874C1.48755 2.96474 1.03662 3.70593 0.694537 4.57669C0.368001 5.42154 0.139944 6.3856 0.0777467 7.7954C0.0155493 9.21558 0 9.66651 0 13.2688C0 16.871 0.0155493 17.322 0.0777467 18.737C0.139944 20.1468 0.368001 21.116 0.694537 21.9557C1.03662 22.8316 1.48755 23.5728 2.22874 24.3088C2.96474 25.0448 3.70593 25.5009 4.57669 25.8378C5.42154 26.1644 6.3856 26.3924 7.79541 26.4546C9.2104 26.5168 9.66133 26.5324 13.2636 26.5324C16.8659 26.5324 17.3168 26.5168 18.7318 26.4546C20.1416 26.3924 21.1108 26.1644 21.9505 25.8378C22.8213 25.5009 23.5624 25.0448 24.2984 24.3088C25.0344 23.5728 25.4906 22.8316 25.8275 21.9609C26.154 21.116 26.3821 20.152 26.4443 18.7421C26.5065 17.3272 26.522 16.8762 26.522 13.274C26.522 9.67169 26.5065 9.22076 26.4443 7.80577C26.3821 6.39596 26.154 5.42672 25.8275 4.58706C25.5009 3.70593 25.05 2.96474 24.3088 2.22874C23.5728 1.49274 22.8316 1.03662 21.9609 0.699721C21.116 0.373184 20.152 0.145127 18.7421 0.0829298C17.322 0.0155494 16.871 0 13.2688 0Z" fill="white"/>
        <path d="M13.2689 6.45312C9.50598 6.45312 6.45312 9.50598 6.45312 13.2689C6.45312 17.0319 9.50598 20.0847 13.2689 20.0847C17.0319 20.0847 20.0847 17.0319 20.0847 13.2689C20.0847 9.50598 17.0319 6.45312 13.2689 6.45312ZM13.2689 17.6901C10.8277 17.6901 8.84772 15.7102 8.84772 13.2689C8.84772 10.8277 10.8277 8.84772 13.2689 8.84772C15.7102 8.84772 17.6901 10.8277 17.6901 13.2689C17.6901 15.7102 15.7102 17.6901 13.2689 17.6901Z" fill="white"/>
        <path d="M21.9451 6.18399C21.9451 7.06512 21.2299 7.77521 20.3539 7.77521C19.4728 7.77521 18.7627 7.05994 18.7627 6.18399C18.7627 5.30286 19.478 4.59277 20.3539 4.59277C21.2299 4.59277 21.9451 5.30804 21.9451 6.18399Z" fill="white"/>
    </g>
    <defs>
        <clipPath id="clip0_816_691">
            <rect width="26.5375" height="26.5375" fill="white"/>
        </clipPath>
    </defs>
</svg>
