<svg width="115" height="89" viewBox="0 0 115 89" fill="none" xmlns="http://www.w3.org/2000/svg">
<rect width="115" height="89" fill="white"/>
<path d="M60.0617 16.4091V15.8955C63.1436 14.8681 65.1981 12.0431 65.1981 8.70453C65.1981 4.33858 61.8595 1 57.4936 1C53.1276 1 49.7891 4.33858 49.7891 8.70453C49.7891 12.0431 51.8436 14.8681 54.9255 15.8955V18.9774C54.9255 20.5183 55.9529 21.5455 57.4936 21.5455C81.6345 21.5455 101.153 41.0636 101.153 65.2045C101.153 66.7455 102.18 67.7726 103.721 67.7726C105.262 67.7726 106.289 66.7453 106.289 65.2045C106.289 39.2659 85.7436 17.6931 60.0617 16.4091ZM57.4936 11.2726C55.9526 11.2726 54.9255 10.2453 54.9255 8.70453C54.9255 7.16358 55.9529 6.13642 57.4936 6.13642C59.0343 6.13642 60.0617 7.1638 60.0617 8.70453C60.0617 10.2455 59.0345 11.2726 57.4936 11.2726Z" fill="url(#paint0_linear_816_384)"/>
<path d="M52.3638 29.5068C52.107 28.2227 50.5662 27.1953 49.2819 27.4522C41.8343 28.9932 35.4139 32.8453 30.0205 38.2387C28.9932 39.266 28.9932 40.8068 30.0205 41.8341C30.5341 42.3477 31.0479 42.6046 31.8182 42.6046C32.5884 42.6046 33.1022 42.3477 33.6158 41.8341C38.2384 37.2115 43.8884 33.8727 50.3089 32.5887C51.5934 32.3318 52.6207 30.791 52.3638 29.5068Z" fill="url(#paint1_linear_816_384)"/>
<path d="M112.973 78.0455C111.432 74.9636 108.093 72.9091 104.755 72.9091H21.5455C20.0045 72.9091 18.9774 73.9364 18.9774 75.4772C18.9774 77.0181 20.0047 78.0453 21.5455 78.0453H104.755C106.295 78.0453 107.836 78.8157 108.35 80.3567C108.607 80.8703 108.864 81.6407 108.864 82.1543V83.1817H6.13642V82.1543C6.13642 81.6407 6.39332 80.8703 6.65 80.3565C7.16358 78.8155 8.70452 78.045 10.2455 78.045H11.2728C12.8138 78.045 13.8409 77.0177 13.8409 75.4769V65.2043C13.8409 44.6588 27.7091 27.1953 47.7409 22.5724C49.025 22.3155 50.0524 20.7748 49.7955 19.4905C49.5386 18.2065 47.9976 17.1791 46.7136 17.436C24.3705 22.5726 8.70453 42.3476 8.70453 65.2045V73.166C5.87953 73.4229 3.31142 75.4774 2.02715 78.0455C1.2569 79.3295 1 80.8705 1 82.1545V85.75C1 87.291 2.02737 88.3181 3.5681 88.3181H111.432C112.973 88.3181 114 87.2907 114 85.75V82.1545C114 80.8705 113.743 79.3295 112.973 78.0455Z" fill="url(#paint2_linear_816_384)"/>
<defs>
<linearGradient id="paint0_linear_816_384" x1="73.4483" y1="-60.4502" x2="153.398" y2="30.7183" gradientUnits="userSpaceOnUse">
<stop stop-color="#D90217"/>
<stop offset="1" stop-color="#FF4B5C"/>
</linearGradient>
<linearGradient id="paint1_linear_816_384" x1="38.9455" y1="13.4315" x2="53.3876" y2="43.0942" gradientUnits="userSpaceOnUse">
<stop stop-color="#D90217"/>
<stop offset="1" stop-color="#FF4B5C"/>
</linearGradient>
<linearGradient id="paint2_linear_816_384" x1="48.3187" y1="-47.8722" x2="113.878" y2="92.8976" gradientUnits="userSpaceOnUse">
<stop stop-color="#D90217"/>
<stop offset="1" stop-color="#FF4B5C"/>
</linearGradient>
</defs>
</svg>
