<svg width="60" height="81" viewBox="0 0 60 81" fill="none" xmlns="http://www.w3.org/2000/svg">
<path d="M0.166667 75.5C0.166667 78.4455 2.55448 80.8333 5.5 80.8333C8.44552 80.8333 10.8333 78.4455 10.8333 75.5C10.8333 72.5545 8.44552 70.1667 5.5 70.1667C2.55448 70.1667 0.166667 72.5545 0.166667 75.5ZM58.5 75.5V76.5H59.5V75.5H58.5ZM5.5 76.5H7.39286V74.5H5.5V76.5ZM11.1786 76.5H14.9643V74.5H11.1786V76.5ZM18.75 76.5H22.5357V74.5H18.75V76.5ZM26.3214 76.5H30.1071V74.5H26.3214V76.5ZM33.8929 76.5H37.6786V74.5H33.8929V76.5ZM41.4643 76.5H45.25V74.5H41.4643V76.5ZM49.0357 76.5H52.8214V74.5H49.0357V76.5ZM56.6071 76.5H58.5V74.5H56.6071V76.5ZM59.5 75.5V73.4028H57.5V75.5H59.5ZM59.5 69.2083V65.0139H57.5V69.2083H59.5ZM59.5 60.8194V56.625H57.5V60.8194H59.5ZM59.5 52.4306V48.2361H57.5V52.4306H59.5ZM59.5 44.0417V39.8472H57.5V44.0417H59.5ZM59.5 35.6528V31.4583H57.5V35.6528H59.5ZM59.5 27.2639V23.0695H57.5V27.2639H59.5ZM59.5 18.875V14.6806H57.5V18.875H59.5ZM59.5 10.4861V6.29168H57.5V10.4861H59.5ZM59.5 2.09724V0H57.5V2.09724H59.5Z" fill="#D90217"/>
</svg>
