<svg width="27" height="27" viewBox="0 0 27 27" fill="none" xmlns="http://www.w3.org/2000/svg">
    <g clip-path="url(#clip0_816_690)">
        <path d="M19.0026 0H14.5302V18.0763C14.5302 20.2301 12.8101 21.9993 10.6695 21.9993C8.52889 21.9993 6.80877 20.2301 6.80877 18.0763C6.80877 15.961 8.49067 14.2302 10.5549 14.1534V9.61507C6.00604 9.69196 2.33643 13.4226 2.33643 18.0763C2.33643 22.7685 6.08248 26.5375 10.7077 26.5375C15.3329 26.5375 19.079 22.73 19.079 18.0763V8.80737C20.7609 10.0381 22.8251 10.7689 25.0039 10.8073V6.26902C21.6401 6.15364 19.0026 3.3845 19.0026 0Z" fill="white"/>
    </g>
    <defs>
        <clipPath id="clip0_816_690">
            <rect width="26.5375" height="26.5375" fill="white" transform="translate(0.125)"/>
        </clipPath>
    </defs>
</svg>
